<svg version="1.0" xmlns="http://www.w3.org/2000/svg"
     width="605.000000pt" height="412.000000pt" viewBox="0 0 605.000000 412.000000"
     preserveAspectRatio="xMidYMid meet">

    <g transform="translate(0.000000,412.000000) scale(0.100000,-0.100000)"
       fill="#000000" stroke="none">
        <path d="M1755 3894 c-90 -10 -249 -46 -324 -74 -215 -79 -492 -258 -474 -306
3 -8 -1 -22 -8 -31 -13 -15 -11 -15 12 1 15 9 29 26 32 37 4 16 9 18 31 9 20
-7 26 -6 26 4 0 8 12 17 27 21 15 3 30 10 33 15 3 4 27 11 55 14 27 4 57 14
66 22 27 24 117 54 123 40 2 -6 5 -3 5 6 1 10 16 21 39 29 20 7 38 12 39 11 8
-5 89 34 96 45 4 7 19 13 31 13 13 0 37 7 52 15 16 8 36 15 44 15 9 0 26 7 38
16 17 12 36 14 73 10 39 -5 51 -3 55 9 3 8 10 13 14 10 5 -3 11 -1 15 5 3 5
19 10 35 10 16 0 32 5 35 11 5 7 51 8 149 3 77 -4 175 -8 216 -9 106 -1 225
-37 287 -86 20 -16 41 -29 47 -29 6 0 31 -19 56 -41 25 -23 59 -54 77 -69 17
-15 39 -41 48 -57 9 -15 29 -46 46 -68 48 -64 69 -99 69 -115 0 -8 9 -33 21
-54 52 -97 79 -240 83 -437 5 -262 -49 -485 -130 -539 -91 -61 -142 -65 -234
-21 -35 17 -68 31 -73 31 -15 0 -59 39 -72 63 -6 12 -22 39 -33 60 -55 96 -87
240 -78 354 4 48 9 89 11 92 2 2 28 -3 57 -10 113 -27 298 -9 354 36 16 13 26
26 22 30 -4 4 -44 20 -89 36 -96 34 -183 38 -269 13 -99 -28 -95 -31 -97 70
-2 100 -17 132 -68 149 -27 9 -32 7 -76 -42 -26 -29 -49 -62 -52 -74 -3 -12
-15 -47 -27 -77 -26 -68 -87 -299 -105 -400 -7 -41 -16 -82 -19 -90 -8 -21
-35 -215 -46 -335 -9 -91 -23 -151 -42 -181 -9 -13 -145 -81 -229 -113 -53
-21 -81 -47 -116 -106 -20 -33 -15 -54 19 -86 45 -40 69 -37 111 12 48 59 74
51 107 -32 13 -34 24 -77 24 -95 0 -60 -16 -67 -185 -78 -25 -1 -50 -5 -55 -9
-20 -12 -100 -35 -140 -40 -22 -2 -79 -23 -127 -46 -48 -23 -100 -44 -117 -48
-17 -3 -33 -10 -36 -14 -3 -5 -12 -9 -20 -9 -14 0 -24 -7 -59 -38 -8 -7 -26
-15 -42 -18 -23 -4 -30 -1 -38 18 -6 13 -21 24 -34 26 -14 2 -21 0 -17 -7 4
-5 14 -8 24 -5 14 5 14 4 3 -4 -20 -14 -53 7 -45 30 8 26 -25 39 -53 21 -21
-14 -23 -14 -29 2 -4 9 -1 20 6 25 8 5 9 9 1 14 -6 4 -15 4 -21 1 -9 -6 -12 5
-15 61 0 12 -13 38 -28 57 -15 20 -27 47 -27 62 0 14 -4 24 -8 21 -4 -2 -14
-1 -21 3 -11 7 -11 13 0 32 7 13 14 36 16 51 2 23 -2 27 -24 30 -22 2 -31 12
-43 46 -9 24 -20 42 -25 40 -5 -2 -12 9 -16 24 -4 15 -3 28 2 30 4 2 3 23 -2
48 -6 25 -8 60 -5 78 4 25 2 32 -8 29 -20 -8 -40 84 -21 99 9 7 10 15 4 25
-13 22 -11 89 4 89 8 1 7 5 -3 13 -12 9 -14 22 -9 52 4 22 4 46 1 54 -3 8 3
20 13 27 17 13 17 14 2 14 -21 0 -22 23 -2 40 12 10 13 16 4 26 -6 8 -8 14 -3
14 5 0 10 15 10 33 1 17 5 56 8 85 6 46 5 52 -11 52 -10 0 -24 9 -31 20 -10
17 -10 23 5 39 10 10 30 21 46 25 36 9 36 36 0 36 l-28 0 24 19 c17 13 20 20
10 23 -11 4 -10 10 4 31 17 26 17 27 -2 27 -28 0 -35 17 -11 25 19 6 29 45 12
45 -4 0 -13 15 -20 33 -12 30 -11 34 18 59 29 27 29 28 9 39 -20 10 -20 11 -3
30 10 11 12 19 6 19 -7 0 -12 5 -12 11 0 5 5 7 12 3 8 -5 9 -2 5 9 -4 11 4 23
24 38 24 17 30 27 26 46 -3 17 -1 23 9 19 8 -3 11 0 8 8 -3 7 2 19 11 26 14
11 18 11 25 1 10 -17 30 -5 29 17 0 14 -2 13 -9 -3 -17 -39 -11 12 6 55 22 53
11 63 -14 13 -11 -21 -42 -61 -69 -88 -137 -143 -254 -347 -298 -518 -60 -236
-115 -735 -115 -1037 1 -198 25 -596 45 -724 60 -387 187 -598 444 -730 110
-56 165 -70 386 -97 154 -18 209 -20 385 -15 395 13 731 18 765 12 39 -8 43
-16 59 -121 l11 -80 1388 -3 c1315 -2 1388 -1 1394 15 4 10 21 41 38 68 62 97
179 310 197 357 15 40 18 78 18 213 l0 165 28 5 c165 35 231 63 280 120 62 70
33 161 -78 242 -97 71 -138 113 -156 159 -20 52 -21 44 44 234 66 191 77 258
77 480 -1 108 -6 229 -13 271 -39 230 -106 404 -183 474 -82 74 -308 158 -549
205 -63 13 -122 29 -132 37 -9 8 -21 41 -27 74 -19 112 -81 193 -168 225 -42
15 -184 17 -223 3 -20 -7 -17 -7 13 -3 29 4 37 2 37 -11 0 -8 4 -15 8 -15 11
0 35 -75 38 -120 6 -82 14 -148 24 -198 15 -65 10 -79 -35 -98 -40 -16 -54
-39 -36 -57 9 -9 16 -9 31 1 17 10 23 9 40 -8 27 -27 18 -40 -26 -40 -55 0
-129 -38 -111 -56 3 -3 23 0 45 6 47 12 117 4 138 -17 9 -10 14 -36 14 -78 0
-53 -4 -68 -25 -93 -60 -71 -204 -94 -261 -41 -58 54 -94 184 -113 409 -5 59
-6 127 -1 155 13 74 12 80 -4 66 -9 -8 -33 -9 -82 -2 -38 5 -127 12 -199 16
-118 6 -128 5 -109 -9 28 -20 74 -154 65 -190 -1 -5 -2 -46 -2 -90 -1 -102
-20 -181 -69 -273 -49 -93 -73 -123 -99 -123 -14 0 -28 -11 -39 -29 -18 -32
-102 -78 -121 -67 -5 4 -18 3 -28 -2 -68 -35 -282 -70 -295 -49 -13 20 -9 117
13 328 18 177 18 202 5 212 -8 7 -26 66 -41 137 -65 306 -141 468 -292 615
-157 154 -276 208 -563 254 -74 13 -478 23 -555 15z m2918 -786 c15 -14 14
-18 -6 -42 -26 -30 -42 -33 -51 -10 -8 21 -8 59 0 67 11 10 40 3 57 -15z
m-3973 -143 c0 -10 -10 -15 -26 -15 -22 0 -25 2 -14 15 7 8 19 15 26 15 8 0
14 -7 14 -15z m-40 -189 c0 -3 -4 -8 -10 -11 -5 -3 -10 -1 -10 4 0 6 5 11 10
11 6 0 10 -2 10 -4z m3000 -421 c0 -11 -71 -77 -77 -71 -9 9 46 76 63 76 7 0
14 -2 14 -5z m697 -67 c45 -42 19 -152 -43 -182 -34 -16 -37 -16 -64 4 -33 23
-46 70 -36 124 8 40 24 56 69 66 48 12 49 12 74 -12z m-3722 2 c3 -5 -1 -10
-9 -10 -9 0 -16 5 -16 10 0 6 4 10 9 10 6 0 13 -4 16 -10z m3173 -18 c30 -20
33 -91 5 -146 -39 -76 -116 -109 -147 -64 -24 33 -22 179 2 200 42 37 93 41
140 10z m327 -125 c17 -126 70 -171 220 -187 55 -6 110 -18 122 -26 22 -14 50
-54 37 -54 -3 0 0 -10 8 -22 15 -23 25 -92 35 -231 4 -64 2 -82 -12 -97 -15
-17 -15 -19 0 -28 15 -8 15 -12 4 -30 -12 -19 -35 -27 -61 -23 -5 0 -8 -5 -8
-13 0 -7 -15 -21 -32 -30 -52 -26 -72 -40 -86 -58 -7 -10 -22 -18 -32 -18 -10
0 -22 -4 -25 -10 -3 -5 -12 -10 -18 -10 -7 0 -6 4 3 10 12 8 10 10 -8 10 -13
0 -21 -3 -19 -7 3 -5 -6 -8 -19 -8 -13 0 -24 3 -24 8 0 4 -8 7 -18 7 -30 0
-39 27 -76 230 -19 104 -36 327 -36 476 0 158 29 230 45 111z m-784 2 c7 -13
8 -39 4 -67 -5 -37 -16 -56 -50 -90 -37 -36 -49 -43 -77 -40 l-33 3 -3 62 c-5
108 26 151 110 152 28 1 40 -4 49 -20z m-468 -155 c17 -60 -60 -174 -118 -174
-52 0 -66 47 -42 140 14 53 42 71 107 68 40 -3 45 -6 53 -34z m713 1 c13 -32
90 -66 171 -75 43 -4 85 -11 94 -14 39 -17 67 -128 68 -271 0 -101 -1 -110
-24 -137 -16 -18 -25 -42 -25 -63 0 -18 -7 -38 -15 -45 -8 -7 -15 -19 -15 -26
0 -8 -9 -14 -20 -14 -11 0 -20 4 -20 9 0 16 -49 18 -80 3 -23 -11 -34 -12 -43
-3 -6 6 -19 11 -29 11 -10 0 -18 7 -18 15 0 8 -6 15 -13 15 -16 0 -43 110 -56
225 -7 65 -8 246 -2 363 1 25 19 30 27 7z m-453 -125 c9 -11 16 -26 14 -33 -1
-6 4 -11 12 -9 30 6 127 -22 160 -47 44 -33 71 -92 71 -159 0 -76 -29 -244
-45 -256 -7 -6 -15 -20 -17 -31 -2 -12 -13 -21 -28 -24 -14 -1 -28 -8 -32 -14
-4 -6 -36 -13 -72 -15 -36 -2 -66 -8 -66 -13 0 -17 -15 -9 -26 14 -6 12 -19
37 -29 55 -13 26 -17 56 -16 134 1 55 4 104 6 108 3 4 7 72 11 151 3 79 8 147
11 152 8 13 28 7 46 -13z m-514 -98 c7 -16 26 -36 44 -45 112 -59 165 -91 185
-114 22 -24 24 -33 19 -107 -8 -109 -16 -148 -38 -169 -10 -10 -21 -28 -25
-42 -3 -13 -12 -26 -20 -29 -8 -3 -14 -12 -14 -20 0 -9 -6 -13 -14 -10 -8 3
-14 0 -13 -8 1 -7 -3 -30 -7 -50 -9 -40 -26 -52 -26 -19 0 14 -5 18 -20 14
-11 -3 -18 -8 -16 -12 3 -4 -4 -8 -15 -8 -10 -1 -19 3 -19 9 0 5 -7 8 -15 5
-8 -4 -17 -2 -20 4 -4 5 -19 0 -37 -13 -27 -19 -32 -20 -42 -6 -6 9 -20 17
-31 19 -12 3 -21 14 -23 27 -2 12 -7 20 -12 17 -5 -3 -7 48 -4 112 4 131 32
270 69 348 13 28 26 62 29 77 7 30 33 61 46 53 4 -2 13 -17 19 -33z m-1832
-154 c-3 -8 -6 -5 -6 6 -1 11 2 17 5 13 3 -3 4 -12 1 -19z m1212 -247 c30 -4
57 -13 59 -20 2 -6 7 -9 12 -6 5 3 21 0 36 -5 30 -12 23 -26 -16 -32 -17 -2
-25 -9 -25 -23 0 -14 -8 -21 -25 -23 -14 -2 -31 -9 -37 -14 -9 -7 -13 -7 -13
0 0 6 -17 2 -38 -8 -56 -27 -88 -33 -110 -21 -15 8 -29 8 -49 0 -47 -18 -272
-30 -318 -17 -22 6 -46 10 -53 9 -8 -1 -16 7 -19 18 -3 12 -12 21 -20 21 -8 0
-11 -4 -8 -10 3 -5 -3 -10 -15 -10 -12 0 -18 5 -15 10 3 6 -2 10 -12 11 -11 0
-13 3 -5 6 10 4 9 9 -5 20 -10 8 -13 12 -6 9 6 -4 14 -2 18 4 3 5 1 10 -6 10
-7 0 -10 2 -8 5 8 7 169 53 225 63 60 12 378 14 453 3z m-161 -351 c8 -13 9
-20 1 -20 -6 0 -3 -7 5 -16 19 -19 21 -34 4 -34 -24 0 -41 18 -44 46 -5 46 12
58 34 24z m147 -38 c0 -39 -35 -44 -36 -5 l-1 28 -11 -27 c-13 -34 -23 -35
-31 -5 -4 15 1 27 16 38 30 23 64 7 63 -29z"/>
        <path d="M907 3462 c-14 -3 -17 -10 -13 -25 3 -12 6 -26 6 -32 1 -5 7 5 16 24
16 38 16 39 -9 33z"/>
        <path d="M4270 3289 l-35 -30 40 27 c22 16 42 29 44 31 2 2 0 3 -5 3 -5 0 -25
-14 -44 -31z"/>
        <path d="M850 3285 c0 -8 5 -15 10 -15 6 0 10 7 10 15 0 8 -4 15 -10 15 -5 0
-10 -7 -10 -15z"/>
        <path d="M822 3260 c0 -14 2 -19 5 -12 2 6 2 18 0 25 -3 6 -5 1 -5 -13z"/>
        <path d="M4345 3155 c-22 -8 -48 -17 -58 -21 -31 -11 -12 -29 37 -36 62 -9 96
4 96 36 0 18 -21 41 -33 35 -1 0 -20 -7 -42 -14z"/>
        <path d="M1365 3040 c-44 -4 -94 -14 -110 -22 -17 -9 -55 -19 -85 -23 -36 -5
-70 -18 -100 -39 -25 -17 -47 -32 -49 -34 -3 -1 2 -10 11 -19 37 -37 277 -54
414 -29 45 8 93 13 107 12 43 -5 77 46 57 84 -11 20 -128 81 -150 79 -8 -1
-51 -5 -95 -9z"/>
    </g>
</svg>
